<?xml version="1.0" standalone="no"?>
<!DOCTYPE svg PUBLIC "-//W3C//DTD SVG 20010904//EN"
 "http://www.w3.org/TR/2001/REC-SVG-20010904/DTD/svg10.dtd">
<svg version="1.0" xmlns="http://www.w3.org/2000/svg"
 width="560.000000pt" height="560.000000pt" viewBox="0 0 560.000000 560.000000"
 preserveAspectRatio="xMidYMid meet">
<metadata>
Created by potrace 1.14, written by Peter Selinger 2001-2017
</metadata>
<g transform="translate(0.000000,560.000000) scale(0.100000,-0.100000)"
fill="#000000" stroke="none">
<path d="M2470 5471 c0 -6 -9 -11 -19 -11 -11 0 -23 -9 -26 -20 -4 -12 -15
-20 -28 -20 -12 0 -42 -11 -66 -25 -28 -16 -59 -25 -86 -25 -24 0 -46 -4 -49
-9 -3 -5 -21 -5 -41 -1 -33 7 -35 6 -52 -29 -20 -40 -60 -59 -48 -22 8 26 0
26 -32 1 -14 -11 -34 -20 -44 -20 -10 0 -20 -4 -23 -9 -3 -4 -16 -6 -28 -4
-16 3 -32 -5 -52 -26 -35 -36 -51 -39 -66 -11 -16 30 -26 25 -54 -27 -21 -36
-24 -48 -14 -55 9 -5 5 -8 -12 -8 -17 0 -30 -10 -42 -30 -22 -39 -44 -47 -68
-25 -18 17 -20 16 -50 -16 -17 -19 -39 -46 -48 -62 -9 -15 -24 -30 -34 -33
-10 -3 -18 -11 -18 -19 0 -7 -12 -16 -26 -19 -16 -4 -29 -17 -36 -36 -6 -19
-17 -30 -29 -30 -11 0 -24 -11 -31 -26 -11 -23 -13 -24 -19 -7 -6 15 -8 13
-14 -12 -12 -52 -15 -57 -35 -62 -15 -4 -20 -14 -20 -39 0 -24 -5 -34 -15 -34
-8 0 -15 -7 -15 -16 0 -8 -7 -22 -15 -30 -8 -9 -15 -30 -15 -48 0 -17 -5 -37
-12 -44 -14 -14 -38 -80 -38 -105 0 -10 -6 -28 -14 -40 -8 -12 -26 -64 -41
-116 -14 -52 -32 -106 -40 -121 -7 -14 -16 -59 -20 -100 -4 -41 -15 -105 -26
-141 -10 -36 -19 -82 -19 -101 0 -20 -12 -80 -26 -134 -37 -137 -38 -144 -25
-144 6 0 11 -8 11 -19 0 -10 6 -24 14 -30 9 -8 12 -32 10 -90 -2 -45 0 -82 6
-86 5 -3 7 -19 4 -34 -4 -16 -1 -32 5 -35 6 -4 11 -27 11 -51 0 -24 5 -47 10
-50 6 -3 10 -30 10 -59 0 -28 4 -56 10 -62 5 -5 10 -48 11 -96 1 -60 6 -91 15
-99 11 -9 14 -8 14 2 0 8 5 6 12 -6 6 -11 18 -29 28 -40 9 -11 23 -46 30 -77
7 -32 17 -58 22 -58 4 0 8 -9 8 -19 0 -11 4 -23 10 -26 6 -4 10 5 10 19 0 14
3 26 8 26 4 0 7 75 7 168 l1 167 38 108 c37 104 38 110 30 190 -4 45 -7 85 -6
89 1 4 9 47 17 95 30 174 86 342 155 466 32 57 61 115 65 128 13 39 74 107
163 181 65 53 87 66 97 58 14 -11 32 -5 145 55 34 18 61 24 116 24 45 1 77 6
90 16 25 19 74 19 110 0 16 -8 38 -15 48 -15 20 0 20 0 0 15 -24 18 -26 18 74
0 64 -11 106 -12 179 -5 52 5 101 6 109 3 8 -3 14 0 14 7 0 8 20 10 73 5 39
-3 197 -8 350 -10 227 -3 282 -6 295 -18 24 -21 141 -68 179 -73 38 -4 85 -28
173 -89 92 -65 134 -116 237 -290 76 -130 104 -193 107 -241 1 -21 8 -49 15
-62 6 -12 10 -26 7 -31 -3 -5 0 -28 7 -52 9 -30 10 -65 5 -109 -6 -55 -4 -70
12 -97 23 -40 13 -43 -21 -7 -35 38 -136 105 -199 134 -30 13 -62 30 -71 38
-10 7 -31 14 -48 14 -17 1 -31 4 -31 7 0 8 -189 5 -197 -3 -4 -3 15 -6 41 -6
51 0 181 -25 208 -40 10 -6 29 -10 43 -10 38 0 104 -36 203 -110 93 -69 182
-233 182 -336 0 -47 26 -140 41 -150 6 -4 15 -1 19 6 4 7 11 -40 15 -104 4
-64 11 -114 15 -111 11 7 30 91 35 151 10 123 22 162 60 199 32 30 37 39 31
66 -10 49 3 109 24 109 16 0 17 12 15 129 -2 72 -6 135 -10 140 -3 6 -1 11 5
11 6 0 15 -10 20 -22 17 -44 11 13 -11 92 -13 47 -21 112 -23 175 -2 78 -7
110 -24 143 -17 35 -18 44 -7 48 11 5 11 13 -2 47 -8 23 -16 67 -18 97 -1 30
-10 70 -19 88 -10 19 -15 40 -12 47 11 30 -54 248 -104 351 -28 57 -54 104
-59 104 -5 0 -40 30 -79 66 -56 52 -73 73 -78 102 -9 57 -15 72 -26 72 -5 0
-12 -9 -15 -20 -7 -28 -23 -25 -23 4 0 12 -5 37 -11 55 -9 25 -14 29 -25 20
-8 -6 -14 -20 -14 -30 0 -33 -18 -20 -25 18 -9 49 -22 73 -40 73 -8 0 -15 3
-15 8 0 4 -18 20 -40 36 -22 17 -40 36 -40 43 0 7 -13 19 -29 27 -16 9 -47 38
-71 66 -38 46 -45 50 -85 50 -39 0 -44 3 -54 32 -11 30 -12 30 -30 14 -25 -23
-50 -10 -76 38 -15 28 -22 33 -36 25 -31 -16 -109 -10 -172 15 -34 14 -80 24
-102 23 -32 -1 -49 5 -83 32 l-42 35 -21 -22 c-26 -28 -42 -19 -34 19 6 26 4
29 -17 29 -13 0 -30 -6 -36 -12 -10 -10 -17 -10 -33 1 -19 11 -25 9 -55 -20
-31 -30 -37 -32 -55 -20 -15 9 -24 10 -32 2 -16 -16 -47 -13 -47 4 0 19 -9 19
-34 0 -25 -19 -39 -9 -24 15 7 11 9 22 6 26 -13 12 -38 -5 -48 -32 -9 -22 -13
-24 -25 -14 -8 7 -15 9 -16 4 -1 -5 -4 2 -8 16 -7 25 -51 43 -51 21z m1027
-393 c-3 -8 -6 -5 -6 6 -1 11 2 17 5 13 3 -3 4 -12 1 -19z m52 -5 c0 -10 -4
-27 -9 -38 -7 -16 -9 -13 -9 18 -1 20 4 37 9 37 6 0 10 -8 9 -17z m-272 -195
c-3 -7 -5 -2 -5 12 0 14 2 19 5 13 2 -7 2 -19 0 -25z"/>
<path d="M1834 3625 c-16 -13 -17 -16 -4 -25 13 -8 12 -10 -5 -11 -19 0 -19
-1 -1 -8 10 -4 33 -5 50 -3 20 3 25 7 16 11 -8 3 -15 12 -16 19 -3 38 -9 40
-40 17z"/>
<path d="M1954 3631 c3 -5 15 -7 26 -4 28 7 25 13 -6 13 -14 0 -23 -4 -20 -9z"/>
<path d="M3560 3600 c18 -12 50 -13 50 -2 0 4 -15 8 -33 9 -23 2 -28 0 -17 -7z"/>
<path d="M3650 3590 c0 -5 5 -10 11 -10 5 0 7 5 4 10 -3 6 -8 10 -11 10 -2 0
-4 -4 -4 -10z"/>
<path d="M3688 3573 c7 -3 16 -2 19 1 4 3 -2 6 -13 5 -11 0 -14 -3 -6 -6z"/>
<path d="M1740 3559 c0 -5 5 -7 10 -4 6 3 10 8 10 11 0 2 -4 4 -10 4 -5 0 -10
-5 -10 -11z"/>
<path d="M1704 3513 c-38 -5 -236 -103 -241 -120 -3 -7 22 1 54 16 154 74 314
103 452 82 189 -30 321 -103 440 -246 18 -22 28 -30 22 -17 -7 12 -39 51 -72
87 -90 96 -216 163 -357 191 -67 13 -222 17 -298 7z"/>
<path d="M3368 3493 c7 -3 16 -2 19 1 4 3 -2 6 -13 5 -11 0 -14 -3 -6 -6z"/>
<path d="M3220 3433 c-105 -53 -246 -221 -263 -313 -5 -30 -2 -27 25 25 60
117 166 231 270 290 58 34 35 32 -32 -2z"/>
<path d="M3485 3229 c50 -6 97 -10 105 -11 8 0 27 -9 42 -19 14 -11 30 -19 35
-19 14 0 48 -40 64 -74 22 -47 44 -47 24 0 -21 52 -34 64 -102 99 -51 26 -69
30 -158 31 l-100 2 90 -9z"/>
<path d="M2025 3210 c11 -5 27 -9 35 -9 9 0 8 4 -5 9 -11 5 -27 9 -35 9 -9 0
-8 -4 5 -9z"/>
<path d="M1905 3200 c-3 -5 -1 -10 4 -10 6 0 11 5 11 10 0 6 -2 10 -4 10 -3 0
-8 -4 -11 -10z"/>
<path d="M2108 3193 c7 -3 16 -2 19 1 4 3 -2 6 -13 5 -11 0 -14 -3 -6 -6z"/>
<path d="M3465 3189 c-3 -4 -27 -6 -53 -3 -57 7 -74 -7 -141 -110 -41 -63 -43
-68 -30 -93 15 -28 92 -69 97 -52 3 6 8 6 16 0 17 -14 136 -25 191 -17 28 5
49 14 52 23 4 9 15 25 25 35 19 19 24 37 11 39 -40 5 -95 3 -99 -3 -3 -5 -10
-6 -15 -2 -5 3 -7 9 -4 14 3 5 -10 12 -29 15 -19 4 -42 15 -51 25 -27 30 5 45
92 43 70 -1 73 0 59 16 -9 10 -14 20 -11 23 9 8 -17 25 -63 41 -23 8 -45 11
-47 6z m-85 -229 c0 -5 -4 -10 -9 -10 -6 0 -13 5 -16 10 -3 6 1 10 9 10 9 0
16 -4 16 -10z"/>
<path d="M1753 3151 c-43 -31 -73 -67 -73 -88 0 -24 15 -13 44 33 17 27 41 50
57 56 16 5 29 14 29 19 0 16 -16 10 -57 -20z"/>
<path d="M1944 3151 c-18 -11 -35 -24 -38 -30 -4 -5 -13 -8 -20 -5 -17 7 -31
-12 -50 -66 -22 -62 -21 -65 26 -114 l41 -45 71 5 c83 6 205 31 223 46 24 19
14 37 -24 43 -58 10 -102 28 -120 47 -28 32 2 50 84 52 l68 1 -32 32 c-55 54
-169 71 -229 34z m36 -222 c0 -14 -27 -10 -33 5 -4 10 0 12 14 9 10 -3 19 -9
19 -14z"/>
<path d="M2467 3149 c4 -13 8 -18 11 -10 2 7 -1 18 -6 23 -8 8 -9 4 -5 -13z"/>
<path d="M2534 2867 c-1 -110 -25 -231 -62 -307 -14 -30 -28 -59 -30 -64 -3
-5 1 -5 8 -1 36 23 110 243 110 329 0 30 6 40 38 60 73 49 229 43 272 -10 16
-18 30 -18 30 0 0 8 -17 25 -37 37 -33 20 -50 23 -128 22 -73 -1 -99 -5 -130
-23 -41 -23 -55 -17 -55 28 0 12 -3 22 -7 22 -5 0 -8 -42 -9 -93z"/>
<path d="M2911 2776 c-2 -54 42 -174 91 -253 110 -174 343 -313 527 -313 71 0
62 7 -29 21 -154 23 -308 102 -414 211 -64 66 -127 171 -131 218 -1 15 -5 33
-10 40 -4 7 -13 33 -20 59 -11 39 -13 41 -14 17z"/>
<path d="M4211 2605 c-2 -21 -79 -128 -127 -177 -52 -54 -155 -131 -195 -147
-21 -8 -21 -10 -4 -10 23 -1 92 38 156 88 82 64 185 203 176 238 -3 10 -5 13
-6 8z"/>
<path d="M1240 2585 c0 -5 5 -17 10 -25 5 -8 10 -10 10 -5 0 6 -5 17 -10 25
-5 8 -10 11 -10 5z"/>
<path d="M1340 2411 c18 -34 131 -120 205 -156 145 -70 309 -92 460 -60 71 15
96 23 172 57 41 18 77 50 37 33 -211 -87 -341 -104 -516 -64 -123 29 -197 65
-291 144 -43 37 -73 57 -67 46z"/>
<path d="M2330 763 c-22 -4 -154 -57 -245 -98 -16 -8 -55 -25 -86 -38 -55 -24
-73 -40 -302 -265 -76 -74 -143 -169 -173 -242 -13 -33 -24 -64 -24 -70 0 -7
431 -10 1325 -10 979 0 1325 3 1325 11 0 31 -109 196 -194 294 -52 61 -101
115 -108 120 -7 6 -44 36 -83 67 -38 31 -106 74 -150 96 -44 22 -116 59 -160
81 -73 37 -87 41 -155 41 l-75 0 25 -20 25 -20 -25 -19 c-14 -11 -61 -38 -105
-61 -68 -34 -96 -42 -190 -54 -123 -15 -287 -13 -385 4 -66 12 -179 70 -216
111 -19 21 -18 21 9 43 43 34 35 41 -33 29z"/>
</g>
</svg>
